<svg width="720" height="123" viewBox="0 0 720 123" xmlns="http://www.w3.org/2000/svg"><title>demo-bg</title><g fill="none" fill-rule="evenodd"><path fill="#D9DAEB" d="M0 77h23v46H0zM320 76h23v47h-23zM160 50h23v72h-23zM480 47h23v76h-23zM680 31h23v92h-23z"/><path fill-opacity=".01" fill="#FFF" d="M703 30h17v92h-17z"/><path fill="#D9DAEB" d="M80 56h23v67H80zM400 72h23v51h-23zM240 19h23v104h-23zM560 19h23v104h-23zM40 45h23v78H40zM360 45h23v78h-23zM200 36h23v87h-23zM520 0h23v123h-23zM120 84h23v39h-23zM440 21h23v102h-23zM640 21h23v102h-23zM280 37h23v86h-23zM600 67h23v56h-23z"/></g></svg>